<?xml version="1.0" encoding="UTF-8" standalone="no"?>
<svg
   xmlns:dc="http://purl.org/dc/elements/1.1/"
   xmlns:cc="http://creativecommons.org/ns#"
   xmlns:rdf="http://www.w3.org/1999/02/22-rdf-syntax-ns#"
   xmlns:svg="http://www.w3.org/2000/svg"
   xmlns="http://www.w3.org/2000/svg"
   xmlns:sodipodi="http://sodipodi.sourceforge.net/DTD/sodipodi-0.dtd"
   xmlns:inkscape="http://www.inkscape.org/namespaces/inkscape"
   width="587.97186"
   height="78.506187"
   viewBox="0 0 155.5618 20.772"
   version="1.1"
   id="svg19"
   sodipodi:docname="globalids-laravel-logo.svg"
   inkscape:version="1.0.1 (3bc2e813f5, 2020-09-07)">
  <metadata
     id="metadata23">
    <rdf:RDF>
      <cc:Work
         rdf:about="">
        <dc:format>image/svg+xml</dc:format>
        <dc:type
           rdf:resource="http://purl.org/dc/dcmitype/StillImage" />
        <dc:title></dc:title>
      </cc:Work>
    </rdf:RDF>
  </metadata>
  <sodipodi:namedview
     pagecolor="#ffffff"
     bordercolor="#666666"
     borderopacity="1"
     objecttolerance="10"
     gridtolerance="10"
     guidetolerance="10"
     inkscape:pageopacity="0"
     inkscape:pageshadow="2"
     inkscape:window-width="3840"
     inkscape:window-height="2082"
     id="namedview21"
     showgrid="false"
     inkscape:zoom="2.3639136"
     inkscape:cx="195.09682"
     inkscape:cy="210.18612"
     inkscape:window-x="0"
     inkscape:window-y="41"
     inkscape:window-maximized="1"
     inkscape:current-layer="svg19"
     inkscape:document-rotation="0" />
  <defs
     id="defs5">
    <filter
       id="a"
       width="1"
       height="1"
       x="0"
       y="0"
       color-interpolation-filters="sRGB">
      <feGaussianBlur
         id="feGaussianBlur2" />
    </filter>
  </defs>
  <text
     style="line-height:1.25"
     x="29.184145"
     y="14.994617"
     stroke-width="0.31"
     font-family="sans-serif"
     font-size="12.46px"
     font-weight="400"
     id="text17"><tspan
       x="29.184145"
       y="14.994617"
       style="font-style:normal;font-variant:normal;font-weight:normal;font-stretch:normal;font-family:'Roboto Mono for Powerline';-inkscape-font-specification:'Roboto Mono for Powerline'"
       font-family="Ubuntu"
       id="tspan15"><tspan
   style="font-weight:bold"
   id="tspan857">GlobalIds</tspan> Laravel</tspan></text>
  <g
     style="fill:none;stroke:currentColor"
     id="g847"
     transform="matrix(1.154,0,0,1.154,-2.3130793,-2.308001)">
    <path
       stroke-linecap="round"
       stroke-linejoin="round"
       stroke-width="2"
       d="M 10,6 H 5 A 2,2 0 0 0 3,8 v 9 a 2,2 0 0 0 2,2 h 14 a 2,2 0 0 0 2,-2 V 8 A 2,2 0 0 0 19,6 H 14 M 10,6 V 5 a 2,2 0 1 1 4,0 v 1 m -4,0 a 2,2 0 1 0 4,0 m -5,8 a 2,2 0 1 0 0,-4 2,2 0 0 0 0,4 z m 0,0 c 1.306,0 2.417,0.835 2.83,2 M 9,14 A 3.001,3.001 0 0 0 6.17,16 M 15,11 h 3 m -3,4 h 2"
       id="path836" />
  </g>
</svg>
