<?xml version="1.0" encoding="UTF-8" standalone="no"?>
<svg
   width="587.972"
   height="78.506"
   viewBox="0 0 155.562 20.772"
   version="1.1"
   id="svg10"
   sodipodi:docname="globalids-laravel-logo.svg"
   inkscape:version="1.1.1 (3bf5ae0d25, 2021-09-20)"
   xmlns:inkscape="http://www.inkscape.org/namespaces/inkscape"
   xmlns:sodipodi="http://sodipodi.sourceforge.net/DTD/sodipodi-0.dtd"
   xmlns="http://www.w3.org/2000/svg"
   xmlns:svg="http://www.w3.org/2000/svg">
  <defs
     id="defs14" />
  <sodipodi:namedview
     id="namedview12"
     pagecolor="#ffffff"
     bordercolor="#666666"
     borderopacity="1.0"
     inkscape:pageshadow="2"
     inkscape:pageopacity="0.0"
     inkscape:pagecheckerboard="0"
     showgrid="false"
     inkscape:zoom="0.63013206"
     inkscape:cx="507.03657"
     inkscape:cy="84.109353"
     inkscape:window-width="1920"
     inkscape:window-height="1016"
     inkscape:window-x="960"
     inkscape:window-y="27"
     inkscape:window-maximized="1"
     inkscape:current-layer="svg10" />
  <path
     id="text6"
     style="font-size:8.03509px;line-height:1.25"
     d="M 238.11914 26.478516 L 233.59375 27.207031 L 233.59375 44.791016 C 233.59375 45.641318 233.67593 46.409316 233.83789 47.097656 C 234.0201 47.765751 234.34295 48.344191 234.80859 48.830078 C 235.29448 49.29572 235.94214 49.658686 236.75195 49.921875 C 237.58201 50.185064 238.65476 50.327411 239.9707 50.347656 L 240.60938 46.613281 C 240.06275 46.572791 239.62666 46.481561 239.30273 46.339844 C 238.97881 46.198127 238.72713 46.015667 238.54492 45.792969 C 238.38296 45.570271 238.27167 45.296581 238.21094 44.972656 C 238.1502 44.648732 238.11914 44.283812 238.11914 43.878906 L 238.11914 26.478516 z M 266.14844 26.478516 L 261.62305 27.207031 L 261.62305 49.527344 C 262.02795 49.648815 262.49511 49.771106 263.02148 49.892578 C 263.54786 49.993805 264.09329 50.085034 264.66016 50.166016 C 265.24727 50.246997 265.83476 50.307166 266.42188 50.347656 C 267.02923 50.408392 267.60572 50.439453 268.15234 50.439453 C 269.46829 50.439453 270.64327 50.245989 271.67578 49.861328 C 272.70829 49.456422 273.57852 48.89094 274.28711 48.162109 C 274.99569 47.433279 275.53207 46.552041 275.89648 45.519531 C 276.28114 44.487021 276.47461 43.332094 276.47461 42.056641 C 276.47461 40.801433 276.32126 39.668515 276.01758 38.65625 C 275.7139 37.62374 275.26875 36.742502 274.68164 36.013672 C 274.09453 35.284841 273.36664 34.728411 272.49609 34.34375 C 271.62555 33.938844 270.62202 33.736328 269.48828 33.736328 C 268.86068 33.736328 268.27514 33.796497 267.72852 33.917969 C 267.18189 34.03944 266.65457 34.212849 266.14844 34.435547 L 266.14844 26.478516 z M 301.28516 26.478516 L 296.75977 27.207031 L 296.75977 44.791016 C 296.75977 45.641318 296.83999 46.409316 297.00195 47.097656 C 297.18416 47.765751 297.50897 48.344191 297.97461 48.830078 C 298.4605 49.29572 299.10816 49.658686 299.91797 49.921875 C 300.74803 50.185064 301.82077 50.327411 303.13672 50.347656 L 303.77539 46.613281 C 303.22877 46.572791 302.79267 46.481561 302.46875 46.339844 C 302.14483 46.198127 301.89119 46.015667 301.70898 45.792969 C 301.54702 45.570271 301.43574 45.296581 301.375 44.972656 C 301.31426 44.648732 301.28516 44.283812 301.28516 43.878906 L 301.28516 26.478516 z M 330.04297 26.478516 L 325.51758 27.207031 L 325.51758 34.435547 C 325.01145 34.212849 324.50613 34.03944 324 33.917969 C 323.51411 33.796497 322.95768 33.736328 322.33008 33.736328 C 321.19634 33.736328 320.18376 33.927839 319.29297 34.3125 C 318.42242 34.697161 317.68353 35.255545 317.07617 35.984375 C 316.46881 36.713205 316.00361 37.603495 315.67969 38.65625 C 315.35576 39.68876 315.19336 40.852739 315.19336 42.148438 C 315.19336 43.423891 315.37582 44.576865 315.74023 45.609375 C 316.12489 46.62164 316.67032 47.493826 317.37891 48.222656 C 318.08749 48.931241 318.95772 49.476668 319.99023 49.861328 C 321.02274 50.245989 322.19773 50.439453 323.51367 50.439453 C 324.06029 50.439453 324.62773 50.408392 325.21484 50.347656 C 325.8222 50.307166 326.40969 50.246997 326.97656 50.166016 C 327.56368 50.085034 328.12011 49.993805 328.64648 49.892578 C 329.17286 49.771106 329.63806 49.648815 330.04297 49.527344 L 330.04297 26.478516 z M 434.90234 26.478516 L 432.07812 26.964844 L 432.07812 45.914062 C 432.07813 47.412214 432.44304 48.516024 433.17188 49.224609 C 433.90071 49.933195 435.13586 50.307166 436.87695 50.347656 L 437.27148 47.978516 C 436.82609 47.91778 436.45212 47.846606 436.14844 47.765625 C 435.84476 47.664399 435.60213 47.524004 435.41992 47.341797 C 435.23771 47.159589 435.10637 46.916961 435.02539 46.613281 C 434.94441 46.309602 434.90234 45.924626 434.90234 45.458984 L 434.90234 26.478516 z M 222.20703 28.513672 C 220.74937 28.513672 219.37187 28.756301 218.07617 29.242188 C 216.80072 29.728074 215.68786 30.446909 214.73633 31.398438 C 213.7848 32.329721 213.0349 33.473644 212.48828 34.830078 C 211.94166 36.186513 211.66797 37.744519 211.66797 39.505859 C 211.66797 41.246954 211.91255 42.795909 212.39844 44.152344 C 212.90457 45.508778 213.6124 46.652701 214.52344 47.583984 C 215.43448 48.515268 216.52728 49.225051 217.80273 49.710938 C 219.09843 50.196824 220.5361 50.439453 222.11523 50.439453 C 223.95756 50.439453 225.50651 50.308111 226.76172 50.044922 C 228.01693 49.801978 228.92727 49.568401 229.49414 49.345703 L 229.49414 38.929688 L 224.75781 38.929688 L 224.75781 46.248047 C 224.47438 46.308783 224.14052 46.348895 223.75586 46.369141 C 223.39144 46.389386 222.9463 46.400391 222.41992 46.400391 C 221.44815 46.400391 220.59602 46.237987 219.86719 45.914062 C 219.13836 45.569893 218.53276 45.093687 218.04688 44.486328 C 217.56099 43.878969 217.19607 43.160135 216.95312 42.330078 C 216.71018 41.479776 216.58789 40.538369 216.58789 39.505859 C 216.58789 37.380104 217.0751 35.710811 218.04688 34.496094 C 219.03889 33.261131 220.63701 32.642578 222.84375 32.642578 C 223.83577 32.642578 224.74807 32.773921 225.57812 33.037109 C 226.42843 33.280053 227.17637 33.573799 227.82422 33.917969 L 229.19141 30.123047 C 229.02944 30.02182 228.75575 29.879473 228.37109 29.697266 C 228.00668 29.515058 227.53047 29.343603 226.94336 29.181641 C 226.37649 28.999433 225.68872 28.848034 224.87891 28.726562 C 224.08934 28.584845 223.19905 28.513672 222.20703 28.513672 z M 306.66016 29 L 306.66016 50.044922 L 311.39648 50.044922 L 311.39648 29 L 306.66016 29 z M 341.79492 29 L 341.79492 50.044922 L 354.45898 50.044922 L 354.45898 47.492188 L 344.74023 47.492188 L 344.74023 29 L 341.79492 29 z M 250.29688 33.644531 C 249.16314 33.644531 248.11045 33.847047 247.13867 34.251953 C 246.18714 34.656859 245.35702 35.224295 244.64844 35.953125 C 243.9601 36.681955 243.41272 37.563193 243.00781 38.595703 C 242.62315 39.628213 242.43164 40.772136 242.43164 42.027344 C 242.43164 43.282552 242.62315 44.435526 243.00781 45.488281 C 243.39247 46.520791 243.92885 47.413034 244.61719 48.162109 C 245.30553 48.89094 246.1266 49.456422 247.07812 49.861328 C 248.0499 50.266234 249.12265 50.46875 250.29688 50.46875 C 251.49135 50.46875 252.5641 50.266234 253.51562 49.861328 C 254.4874 49.456422 255.31752 48.89094 256.00586 48.162109 C 256.6942 47.413034 257.22152 46.520791 257.58594 45.488281 C 257.95035 44.435526 258.13086 43.282552 258.13086 42.027344 C 258.13086 40.772136 257.93935 39.628213 257.55469 38.595703 C 257.17003 37.563193 256.63365 36.681955 255.94531 35.953125 C 255.25697 35.224295 254.42685 34.656859 253.45508 34.251953 C 252.50355 33.847047 251.45086 33.644531 250.29688 33.644531 z M 285.70508 33.644531 C 285.1787 33.644531 284.65333 33.675592 284.12695 33.736328 C 283.62082 33.776819 283.13361 33.836988 282.66797 33.917969 C 282.20233 33.978705 281.76819 34.060883 281.36328 34.162109 C 280.97862 34.243091 280.65381 34.323316 280.39062 34.404297 L 280.96875 38.048828 C 281.51537 37.846375 282.16303 37.694976 282.91211 37.59375 C 283.66119 37.472278 284.42013 37.410156 285.18945 37.410156 C 286.34343 37.410156 287.1535 37.643733 287.61914 38.109375 C 288.08478 38.575017 288.31641 39.191616 288.31641 39.960938 L 288.31641 40.386719 C 288.03297 40.305738 287.659 40.245569 287.19336 40.205078 C 286.74796 40.144342 286.23164 40.113281 285.64453 40.113281 C 284.77398 40.113281 283.93481 40.204511 283.125 40.386719 C 282.31519 40.548681 281.59635 40.822371 280.96875 41.207031 C 280.34115 41.591692 279.83388 42.10801 279.44922 42.755859 C 279.0848 43.403709 278.90234 44.193717 278.90234 45.125 C 278.90234 46.096774 279.06475 46.91589 279.38867 47.583984 C 279.7126 48.252079 280.1778 48.799458 280.78516 49.224609 C 281.39251 49.629515 282.11135 49.923261 282.94141 50.105469 C 283.79171 50.287676 284.73312 50.378906 285.76562 50.378906 C 287.40549 50.378906 288.80305 50.276672 289.95703 50.074219 C 291.11101 49.892011 292.01231 49.729608 292.66016 49.587891 L 292.66016 40.173828 C 292.66016 39.181809 292.54887 38.282468 292.32617 37.472656 C 292.10347 36.662845 291.7185 35.973118 291.17188 35.40625 C 290.6455 34.839382 289.93767 34.405242 289.04688 34.101562 C 288.15608 33.797883 287.04127 33.644531 285.70508 33.644531 z M 362.47656 33.857422 C 361.48454 33.857422 360.56319 33.9396 359.71289 34.101562 C 358.86259 34.24328 358.25504 34.394678 357.89062 34.556641 L 358.22461 36.894531 C 358.56878 36.752814 359.0851 36.621472 359.77344 36.5 C 360.48202 36.358283 361.30114 36.287109 362.23242 36.287109 C 362.96125 36.287109 363.54874 36.398396 363.99414 36.621094 C 364.45978 36.823547 364.8247 37.108241 365.08789 37.472656 C 365.35108 37.816826 365.53354 38.219905 365.63477 38.685547 C 365.73599 39.130943 365.78516 39.587093 365.78516 40.052734 L 365.78516 40.841797 C 365.70418 40.821552 365.56378 40.792444 365.36133 40.751953 C 365.15888 40.711463 364.91429 40.67135 364.63086 40.630859 C 364.36767 40.570124 364.08493 40.528058 363.78125 40.507812 C 363.47757 40.467322 363.18382 40.447266 362.90039 40.447266 C 362.0096 40.447266 361.15942 40.538496 360.34961 40.720703 C 359.5398 40.902911 358.83197 41.187605 358.22461 41.572266 C 357.61725 41.956926 357.13004 42.46224 356.76562 43.089844 C 356.42146 43.717448 356.25 44.467343 356.25 45.337891 C 356.25 46.248929 356.4014 47.027932 356.70508 47.675781 C 357.00876 48.323631 357.43385 48.849 357.98047 49.253906 C 358.52709 49.638567 359.17475 49.923261 359.92383 50.105469 C 360.6729 50.287676 361.49397 50.378906 362.38477 50.378906 C 363.01237 50.378906 363.63997 50.347845 364.26758 50.287109 C 364.91543 50.246619 365.51197 50.195501 366.05859 50.134766 C 366.60522 50.07403 367.09243 50.013861 367.51758 49.953125 C 367.96297 49.872144 368.30588 49.811975 368.54883 49.771484 L 368.54883 39.900391 C 368.54883 39.009598 368.44855 38.201487 368.24609 37.472656 C 368.04364 36.72358 367.69878 36.084971 367.21289 35.558594 C 366.74725 35.011971 366.11964 34.595934 365.33008 34.3125 C 364.56076 34.008821 363.6103 33.857422 362.47656 33.857422 z M 390.04883 33.857422 C 389.05681 33.857422 388.13741 33.9396 387.28711 34.101562 C 386.43681 34.24328 385.82926 34.394678 385.46484 34.556641 L 385.79883 36.894531 C 386.143 36.752814 386.65932 36.621472 387.34766 36.5 C 388.05624 36.358283 388.87536 36.287109 389.80664 36.287109 C 390.53547 36.287109 391.12296 36.398396 391.56836 36.621094 C 392.034 36.823547 392.39892 37.108241 392.66211 37.472656 C 392.9253 37.816826 393.1058 38.219905 393.20703 38.685547 C 393.30826 39.130943 393.35938 39.587093 393.35938 40.052734 L 393.35938 40.841797 C 393.27839 40.821552 393.138 40.792444 392.93555 40.751953 C 392.73309 40.711463 392.48851 40.67135 392.20508 40.630859 C 391.94189 40.570124 391.65915 40.528058 391.35547 40.507812 C 391.05179 40.467322 390.75804 40.447266 390.47461 40.447266 C 389.58382 40.447266 388.73364 40.538496 387.92383 40.720703 C 387.11402 40.902911 386.40619 41.187605 385.79883 41.572266 C 385.19147 41.956926 384.70426 42.46224 384.33984 43.089844 C 383.99567 43.717448 383.82422 44.467343 383.82422 45.337891 C 383.82422 46.248929 383.97562 47.027932 384.2793 47.675781 C 384.58298 48.323631 385.00806 48.849 385.55469 49.253906 C 386.10131 49.638567 386.74897 49.923261 387.49805 50.105469 C 388.24712 50.287676 389.06819 50.378906 389.95898 50.378906 C 390.58659 50.378906 391.21419 50.347845 391.8418 50.287109 C 392.48965 50.246619 393.08619 50.195501 393.63281 50.134766 C 394.17944 50.07403 394.66469 50.013861 395.08984 49.953125 C 395.53524 49.872144 395.8801 49.811975 396.12305 49.771484 L 396.12305 39.900391 C 396.12305 39.009598 396.02277 38.201487 395.82031 37.472656 C 395.61786 36.72358 395.273 36.084971 394.78711 35.558594 C 394.32147 35.011971 393.69386 34.595934 392.9043 34.3125 C 392.13498 34.008821 391.18256 33.857422 390.04883 33.857422 z M 421.48047 33.857422 C 420.56943 33.857422 419.67914 34.03083 418.80859 34.375 C 417.93805 34.71917 417.16809 35.235488 416.5 35.923828 C 415.83191 36.612168 415.29553 37.482401 414.89062 38.535156 C 414.48572 39.567666 414.2832 40.782762 414.2832 42.179688 C 414.2832 43.37416 414.4346 44.476017 414.73828 45.488281 C 415.06221 46.480301 415.54942 47.341482 416.19727 48.070312 C 416.84511 48.799143 417.66423 49.37563 418.65625 49.800781 C 419.66851 50.205687 420.86355 50.408203 422.24023 50.408203 C 423.33348 50.408203 424.30399 50.307922 425.1543 50.105469 C 426.02484 49.903016 426.63239 49.709551 426.97656 49.527344 L 426.58203 47.158203 C 426.23786 47.320165 425.72154 47.493574 425.0332 47.675781 C 424.36511 47.837744 423.53499 47.917969 422.54297 47.917969 C 420.78163 47.917969 419.48631 47.49288 418.65625 46.642578 C 417.82619 45.792276 417.34999 44.548072 417.22852 42.908203 L 428.03906 42.908203 C 428.05931 42.746241 428.07031 42.572833 428.07031 42.390625 L 428.07031 41.90625 C 428.07031 39.193381 427.50288 37.177272 426.36914 35.861328 C 425.2354 34.525139 423.60622 33.857422 421.48047 33.857422 z M 379.05664 33.917969 C 377.82168 33.917969 376.70882 34.029255 375.7168 34.251953 C 374.72478 34.454406 373.89466 34.676978 373.22656 34.919922 L 373.22656 50.044922 L 376.05078 50.044922 L 376.05078 36.773438 C 376.21274 36.732947 376.5466 36.661773 377.05273 36.560547 C 377.57911 36.439075 378.10448 36.378906 378.63086 36.378906 C 379.44067 36.378906 380.09934 36.439075 380.60547 36.560547 C 381.13185 36.661773 381.50582 36.753003 381.72852 36.833984 L 382.21484 34.375 C 382.09337 34.334509 381.90186 34.292444 381.63867 34.251953 C 381.39573 34.191217 381.12204 34.142053 380.81836 34.101562 C 380.51468 34.040827 380.20088 33.998761 379.87695 33.978516 C 379.57327 33.938025 379.29958 33.917969 379.05664 33.917969 z M 398.40039 34.251953 C 399.18996 37.207766 400.11131 40.04299 401.16406 42.755859 C 402.23706 45.468728 403.2697 47.898921 404.26172 50.044922 L 406.8125 50.044922 C 407.80452 47.898921 408.8281 45.468728 409.88086 42.755859 C 410.95386 40.04299 411.88426 37.207766 412.67383 34.251953 L 409.75781 34.251953 C 409.51487 35.243972 409.22112 36.30767 408.87695 37.441406 C 408.55303 38.554897 408.19911 39.667759 407.81445 40.78125 C 407.45004 41.874496 407.07607 42.938193 406.69141 43.970703 C 406.30675 45.003213 405.94183 45.924563 405.59766 46.734375 C 405.25349 45.924563 404.88857 45.003213 404.50391 43.970703 C 404.11925 42.938193 403.73622 41.874496 403.35156 40.78125 C 402.98715 39.667759 402.63128 38.554897 402.28711 37.441406 C 401.96318 36.30767 401.68044 35.243972 401.4375 34.251953 L 398.40039 34.251953 z M 421.44922 36.257812 C 422.6032 36.257812 423.50449 36.671896 424.15234 37.501953 C 424.82044 38.311765 425.14525 39.355406 425.125 40.630859 L 417.28906 40.630859 C 417.3498 40.084237 417.47209 39.545909 417.6543 39.019531 C 417.85675 38.493154 418.13044 38.027953 418.47461 37.623047 C 418.81878 37.218141 419.23286 36.895287 419.71875 36.652344 C 420.22488 36.389155 420.80137 36.257812 421.44922 36.257812 z M 250.29688 37.533203 C 251.32938 37.533203 252.11939 37.938235 252.66602 38.748047 C 253.23288 39.537613 253.51562 40.630419 253.51562 42.027344 C 253.51563 43.424269 253.23288 44.537131 252.66602 45.367188 C 252.11939 46.176999 251.32938 46.582031 250.29688 46.582031 C 249.26437 46.582031 248.46531 46.176999 247.89844 45.367188 C 247.33157 44.537131 247.04688 43.424269 247.04688 42.027344 C 247.04688 40.630419 247.33157 39.537613 247.89844 38.748047 C 248.46531 37.938235 249.26437 37.533203 250.29688 37.533203 z M 268.63867 37.5625 C 270.78467 37.5625 271.85742 39.020225 271.85742 41.935547 C 271.85742 43.332472 271.54362 44.456338 270.91602 45.306641 C 270.28841 46.156943 269.35801 46.582031 268.12305 46.582031 C 267.71814 46.582031 267.34417 46.571027 267 46.550781 C 266.65583 46.510291 266.37114 46.470178 266.14844 46.429688 L 266.14844 38.201172 C 266.43187 38.018964 266.79679 37.865612 267.24219 37.744141 C 267.70783 37.622669 268.17303 37.5625 268.63867 37.5625 z M 323.02734 37.5625 C 323.49299 37.5625 323.94913 37.622669 324.39453 37.744141 C 324.86017 37.865612 325.23414 38.018964 325.51758 38.201172 L 325.51758 46.429688 C 325.29488 46.470178 325.01214 46.510291 324.66797 46.550781 C 324.3238 46.571027 323.94983 46.582031 323.54492 46.582031 C 322.30996 46.582031 321.3776 46.156943 320.75 45.306641 C 320.1224 44.456338 319.80859 43.332472 319.80859 41.935547 C 319.80859 39.020225 320.88134 37.5625 323.02734 37.5625 z M 363.14453 42.724609 C 363.79238 42.724609 364.33781 42.766675 364.7832 42.847656 C 365.24884 42.908392 365.5827 42.988617 365.78516 43.089844 L 365.78516 47.796875 C 365.44099 47.877856 365.00685 47.938025 364.48047 47.978516 C 363.97434 47.998761 363.38684 48.009766 362.71875 48.009766 C 361.60526 48.009766 360.72402 47.816301 360.07617 47.431641 C 359.42832 47.026735 359.10547 46.318905 359.10547 45.306641 C 359.10547 44.760018 359.23681 44.323925 359.5 44 C 359.76319 43.65583 360.08604 43.393145 360.4707 43.210938 C 360.87561 43.008485 361.3117 42.877142 361.77734 42.816406 C 362.26323 42.75567 362.71938 42.724609 363.14453 42.724609 z M 390.71875 42.724609 C 391.3666 42.724609 391.91203 42.766675 392.35742 42.847656 C 392.82306 42.908392 393.15692 42.988617 393.35938 43.089844 L 393.35938 47.796875 C 393.01521 47.877856 392.58107 47.938025 392.05469 47.978516 C 391.54856 47.998761 390.96106 48.009766 390.29297 48.009766 C 389.17948 48.009766 388.29824 47.816301 387.65039 47.431641 C 387.00254 47.026735 386.67969 46.318905 386.67969 45.306641 C 386.67969 44.760018 386.81103 44.323925 387.07422 44 C 387.33741 43.65583 387.66026 43.393145 388.04492 43.210938 C 388.44983 43.008485 388.88592 42.877142 389.35156 42.816406 C 389.83745 42.75567 390.2936 42.724609 390.71875 42.724609 z M 286.49609 43.150391 C 286.79977 43.150391 287.13363 43.170447 287.49805 43.210938 C 287.86246 43.251428 288.1342 43.291541 288.31641 43.332031 L 288.31641 46.763672 C 288.07346 46.804162 287.75061 46.835223 287.3457 46.855469 C 286.9408 46.875714 286.51571 46.886719 286.07031 46.886719 C 285.24026 46.886719 284.58159 46.753423 284.0957 46.490234 C 283.63006 46.2068 283.39844 45.712491 283.39844 45.003906 C 283.39844 44.639491 283.47866 44.33474 283.64062 44.091797 C 283.80259 43.848853 284.02516 43.657342 284.30859 43.515625 C 284.59203 43.373908 284.91683 43.282678 285.28125 43.242188 C 285.66591 43.181452 286.07094 43.150391 286.49609 43.150391 z "
     transform="matrix(0.26459125,0,0,0.26459125,-0.00512197,0)" />
  <path
     stroke-linecap="round"
     stroke-linejoin="round"
     stroke-width="1.74854"
     d="m 40.067451,4.6680054 h -4.37134 a 1.7485391,1.7485391 0 0 0 -1.74854,1.7485391 V 14.28497 a 1.7485391,1.7485391 0 0 0 1.74854,1.748539 h 12.23977 a 1.7485391,1.7485391 0 0 0 1.74854,-1.748539 V 6.4165445 a 1.7485391,1.7485391 0 0 0 -1.74854,-1.7485391 h -4.37135 m -3.49708,0 V 3.7937358 a 1.74854,1.74854 0 1 1 3.49708,0 v 0.8742696 m -3.49708,0 a 1.74854,1.74854 0 1 0 3.49708,0 m -4.37135,6.9941566 a 1.7485391,1.7485391 0 1 0 0,-3.4970781 1.7485391,1.7485391 0 0 0 0,3.4970781 z m 0,0 c 1.14171,0 2.11371,0.730325 2.47432,1.748539 m -2.47432,-1.748539 a 2.6235662,2.6235662 0 0 0 -2.47431,1.748539 m 7.71993,-4.3713481 h 2.62281 m -2.62281,3.4970781 h 1.74854"
     fill="none"
     stroke="currentColor"
     id="path8" />
</svg>
