<svg xmlns="http://www.w3.org/2000/svg" width="587.972" height="78.506" viewBox="0 0 155.562 20.772"><text style="line-height:1.25" x="29.184" y="14.995" stroke-width=".31" font-family="sans-serif" font-size="12.46" font-weight="400"><tspan x="29.184" y="14.995" style="-inkscape-font-specification:'Roboto Mono for Powerline'" font-family="Roboto Mono for Powerline"><tspan font-weight="700">GlobalId</tspan> Laravel</tspan></text><path stroke-linecap="round" stroke-linejoin="round" stroke-width="2.308" d="M9.227 4.616h-5.77a2.308 2.308 0 00-2.308 2.308V17.31a2.308 2.308 0 002.308 2.308h16.156a2.308 2.308 0 002.308-2.308V6.924a2.308 2.308 0 00-2.308-2.308h-5.77m-4.616 0V3.462a2.308 2.308 0 114.616 0v1.154m-4.616 0a2.308 2.308 0 104.616 0m-5.77 9.232a2.308 2.308 0 100-4.616 2.308 2.308 0 000 4.616zm0 0c1.507 0 2.79.964 3.266 2.308m-3.266-2.308a3.463 3.463 0 00-3.266 2.308m10.19-5.77h3.462m-3.462 4.616h2.308" fill="none" stroke="currentColor"/></svg>